<svg width="196" height="40" viewBox="0 0 196 40" fill="none" xmlns="http://www.w3.org/2000/svg">
<g clip-path="url(#clip0_560_860)">
<path d="M5.81595 31.3636L4.60219 25.5556L17.2455 12.8788H25.5396L5.81595 31.3636ZM0 39.495V2.12121H6.22054V39.495H0ZM18.0041 39.495L8.19289 27.6263L12.5928 23.8889L25.6913 39.495H18.0041Z" fill="white"/>
<path d="M31.2476 39.495V12.8788H37.4682V39.495H31.2476ZM34.2821 7.22222C33.0346 7.22222 32.0568 6.91919 31.3488 6.31314C30.6745 5.6734 30.3373 4.78115 30.3373 3.63636C30.3373 2.55892 30.6913 1.6835 31.3994 1.0101C32.1074 0.336702 33.0683 0 34.2821 0C35.5632 0 36.541 0.319866 37.2153 0.959599C37.9233 1.56566 38.2773 2.45791 38.2773 3.63636C38.2773 4.68014 37.9233 5.53872 37.2153 6.21212C36.5073 6.88552 35.5295 7.22222 34.2821 7.22222Z" fill="white"/>
<path d="M56.8362 40C54.4761 40 52.3521 39.4108 50.464 38.2323C48.6096 37.0202 47.1261 35.3872 46.0135 33.3333C44.9346 31.2458 44.3952 28.8552 44.3952 26.1616C44.3952 23.5017 44.9346 21.1279 46.0135 19.0404C47.0924 16.9529 48.559 15.3199 50.4134 14.1414C52.3015 12.9293 54.4256 12.3232 56.7857 12.3232C58.0668 12.3232 59.2975 12.5253 60.4775 12.9293C61.6913 13.3333 62.7702 13.8889 63.7142 14.596C64.6582 15.2694 65.4 16.0269 65.9394 16.8687C66.5126 17.7104 66.8329 18.5859 66.9003 19.4949L65.2314 19.697V2.12121H71.4519V39.495H65.4337L65.282 33.2323L66.4957 33.3333C66.462 34.1751 66.1586 34.9832 65.5854 35.7576C65.046 36.532 64.3379 37.2391 63.4613 37.8788C62.5847 38.5185 61.5564 39.0404 60.3764 39.4444C59.23 39.8148 58.05 40 56.8362 40ZM58.05 34.7475C59.4997 34.7475 60.7809 34.3771 61.8936 33.6364C63.0062 32.8956 63.8659 31.8855 64.4728 30.6061C65.1134 29.3266 65.4337 27.8451 65.4337 26.1616C65.4337 24.5118 65.1134 23.0471 64.4728 21.7677C63.8659 20.4545 63.0062 19.4444 61.8936 18.7374C60.7809 17.9966 59.4997 17.6263 58.05 17.6263C56.6002 17.6263 55.319 17.9966 54.2064 18.7374C53.0938 19.4444 52.2172 20.4545 51.5766 21.7677C50.9697 23.0471 50.6663 24.5118 50.6663 26.1616C50.6663 27.8451 50.9697 29.3266 51.5766 30.6061C52.2172 31.8855 53.0938 32.8956 54.2064 33.6364C55.319 34.3771 56.6002 34.7475 58.05 34.7475Z" fill="white"/>
<path d="M82.1545 39.495V6.11111H88.3751V39.495H82.1545ZM76.8949 18.6364V12.8788H94.191V18.6364H76.8949Z" fill="white"/>
<path d="M109.504 40C107.313 40 105.323 39.3939 103.536 38.1818C101.749 36.9697 100.317 35.3199 99.2377 33.2323C98.1588 31.1448 97.6193 28.771 97.6193 26.1111C97.6193 23.4512 98.1588 21.0774 99.2377 18.9899C100.317 16.9024 101.783 15.2694 103.638 14.0909C105.492 12.9125 107.582 12.3232 109.909 12.3232C111.257 12.3232 112.488 12.5253 113.601 12.9293C114.713 13.2997 115.691 13.8384 116.534 14.5455C117.377 15.2525 118.068 16.0606 118.607 16.9697C119.18 17.8788 119.568 18.8552 119.77 19.899L118.405 19.5455V12.8788H124.676V39.495H118.354V33.1313L119.821 32.8788C119.585 33.7879 119.147 34.6801 118.506 35.5556C117.899 36.3973 117.124 37.1549 116.18 37.8283C115.269 38.468 114.241 38.9899 113.095 39.3939C111.982 39.798 110.785 40 109.504 40ZM111.224 34.495C112.673 34.495 113.955 34.1414 115.067 33.4343C116.18 32.7273 117.039 31.7508 117.646 30.5051C118.287 29.2256 118.607 27.7609 118.607 26.1111C118.607 24.495 118.287 23.064 117.646 21.8182C117.039 20.5724 116.18 19.596 115.067 18.8889C113.955 18.1818 112.673 17.8283 111.224 17.8283C109.774 17.8283 108.493 18.1818 107.38 18.8889C106.301 19.596 105.458 20.5724 104.851 21.8182C104.244 23.064 103.941 24.495 103.941 26.1111C103.941 27.7609 104.244 29.2256 104.851 30.5051C105.458 31.7508 106.301 32.7273 107.38 33.4343C108.493 34.1414 109.774 34.495 111.224 34.495Z" fill="white"/>
<path d="M132.697 39.495V2.12121H138.968V39.495H132.697Z" fill="white"/>
<path d="M159.034 40C156.236 40 153.758 39.4108 151.6 38.2323C149.476 37.0539 147.807 35.4545 146.593 33.4343C145.413 31.3805 144.823 29.0404 144.823 26.4141C144.823 24.3266 145.16 22.4242 145.834 20.7071C146.509 18.9899 147.436 17.5084 148.616 16.2626C149.83 14.9832 151.263 14.0067 152.915 13.3333C154.6 12.6263 156.438 12.2727 158.427 12.2727C160.18 12.2727 161.816 12.6094 163.333 13.2828C164.85 13.9562 166.165 14.8822 167.277 16.0606C168.39 17.2054 169.233 18.5859 169.806 20.202C170.413 21.7845 170.7 23.5185 170.666 25.404L170.615 27.5758H149.02L147.857 23.3333H165.406L164.597 24.1919V23.0808C164.496 22.037 164.159 21.1279 163.586 20.3535C163.012 19.5455 162.271 18.9226 161.36 18.4848C160.484 18.0135 159.506 17.7778 158.427 17.7778C156.775 17.7778 155.376 18.0976 154.23 18.7374C153.117 19.3771 152.274 20.303 151.701 21.5152C151.128 22.6936 150.841 24.1751 150.841 25.9596C150.841 27.6768 151.195 29.1751 151.903 30.4545C152.645 31.734 153.673 32.7273 154.988 33.4343C156.337 34.1077 157.905 34.4444 159.691 34.4444C160.939 34.4444 162.085 34.2424 163.13 33.8384C164.176 33.4343 165.305 32.7104 166.519 31.6667L169.604 35.9596C168.694 36.8013 167.648 37.5253 166.468 38.1313C165.322 38.7037 164.108 39.1583 162.827 39.495C161.546 39.8317 160.281 40 159.034 40Z" fill="white"/>
<path d="M185.835 40C183.475 40 181.351 39.6128 179.462 38.8384C177.608 38.0303 176.091 36.8855 174.911 35.404L178.957 31.9192C179.968 33.064 181.098 33.8889 182.345 34.3939C183.593 34.899 184.908 35.1515 186.29 35.1515C186.863 35.1515 187.369 35.0842 187.807 34.9495C188.279 34.8148 188.684 34.6128 189.021 34.3434C189.358 34.0741 189.611 33.771 189.779 33.4343C189.982 33.064 190.083 32.6599 190.083 32.2222C190.083 31.4141 189.779 30.7744 189.173 30.303C188.835 30.0673 188.296 29.8148 187.554 29.5455C186.846 29.2761 185.919 29.0067 184.773 28.7374C182.952 28.266 181.435 27.7273 180.221 27.1212C179.007 26.4815 178.063 25.7744 177.389 25C176.816 24.3603 176.378 23.6364 176.074 22.8283C175.804 22.0202 175.669 21.1448 175.669 20.202C175.669 19.0236 175.922 17.963 176.428 17.0202C176.968 16.0438 177.692 15.202 178.603 14.495C179.513 13.7879 180.575 13.2492 181.789 12.8788C183.003 12.5084 184.267 12.3232 185.582 12.3232C186.93 12.3232 188.229 12.4916 189.476 12.8283C190.757 13.165 191.937 13.6532 193.016 14.2929C194.129 14.899 195.073 15.6397 195.848 16.5152L192.409 20.303C191.769 19.697 191.061 19.1583 190.285 18.6869C189.543 18.2155 188.785 17.8451 188.009 17.5758C187.234 17.2727 186.509 17.1212 185.835 17.1212C185.194 17.1212 184.621 17.1886 184.115 17.3232C183.61 17.4242 183.188 17.5926 182.851 17.8283C182.514 18.064 182.244 18.367 182.042 18.7374C181.873 19.0741 181.789 19.4781 181.789 19.9495C181.823 20.3535 181.924 20.7407 182.092 21.1111C182.295 21.4478 182.564 21.734 182.901 21.9697C183.272 22.2054 183.829 22.4748 184.57 22.7778C185.312 23.0808 186.273 23.367 187.453 23.6364C189.105 24.0741 190.487 24.5623 191.6 25.101C192.713 25.6397 193.589 26.2626 194.23 26.9697C194.871 27.5758 195.326 28.2828 195.595 29.0909C195.865 29.899 196 30.7912 196 31.7677C196 33.3502 195.545 34.7643 194.635 36.0101C193.758 37.2559 192.544 38.2323 190.993 38.9394C189.476 39.6465 187.757 40 185.835 40Z" fill="white"/>
</g>
<defs>
<clipPath id="clip0_560_860">
<rect width="196" height="40" fill="white"/>
</clipPath>
</defs>
</svg>
