<svg width="20" height="20" viewBox="0 0 20 20" fill="none" xmlns="http://www.w3.org/2000/svg">
<path d="M2.68342 10.4425L8.30842 16.0675C8.4257 16.1848 8.58476 16.2507 8.75061 16.2507C8.91646 16.2507 9.07552 16.1848 9.1928 16.0675C9.31007 15.9503 9.37596 15.7912 9.37596 15.6253C9.37596 15.4595 9.31007 15.3004 9.1928 15.1832L4.6342 10.6253H16.8756C17.0414 10.6253 17.2003 10.5595 17.3176 10.4423C17.4348 10.3251 17.5006 10.1661 17.5006 10.0003C17.5006 9.83459 17.4348 9.67562 17.3176 9.55841C17.2003 9.4412 17.0414 9.37535 16.8756 9.37535H4.6342L9.1928 4.81753C9.31007 4.70026 9.37596 4.5412 9.37596 4.37535C9.37596 4.2095 9.31007 4.05044 9.1928 3.93316C9.07552 3.81588 8.91646 3.75 8.75061 3.75C8.58476 3.75 8.4257 3.81588 8.30842 3.93316L2.68342 9.55816C2.62531 9.61621 2.57921 9.68514 2.54776 9.76101C2.51631 9.83688 2.50012 9.91821 2.50012 10.0003C2.50012 10.0825 2.51631 10.1638 2.54776 10.2397C2.57921 10.3156 2.62531 10.3845 2.68342 10.4425Z" fill="white"/>
</svg>
