<svg width="20" height="20" viewBox="0 0 20 20" fill="none" xmlns="http://www.w3.org/2000/svg">
<path d="M17.3173 9.55814L11.6923 3.93314C11.575 3.81586 11.416 3.74998 11.2501 3.74998C11.0843 3.74998 10.9252 3.81586 10.8079 3.93314C10.6907 4.05041 10.6248 4.20947 10.6248 4.37532C10.6248 4.54118 10.6907 4.70024 10.8079 4.81751L15.3665 9.37533L3.12512 9.37532C2.95936 9.37532 2.80039 9.44117 2.68318 9.55838C2.56597 9.67559 2.50012 9.83456 2.50012 10.0003C2.50012 10.1661 2.56597 10.3251 2.68318 10.4423C2.80039 10.5595 2.95936 10.6253 3.12512 10.6253L15.3665 10.6253L10.8079 15.1831C10.6907 15.3004 10.6248 15.4595 10.6248 15.6253C10.6248 15.7912 10.6907 15.9502 10.8079 16.0675C10.9252 16.1848 11.0843 16.2507 11.2501 16.2507C11.416 16.2507 11.575 16.1848 11.6923 16.0675L17.3173 10.4425C17.3754 10.3845 17.4215 10.3155 17.453 10.2397C17.4844 10.1638 17.5006 10.0825 17.5006 10.0003C17.5006 9.91819 17.4844 9.83686 17.453 9.76099C17.4215 9.68512 17.3754 9.61618 17.3173 9.55814Z" fill="white"/>
</svg>
