<svg width="50" height="50" viewBox="0 0 50 50" fill="none" xmlns="http://www.w3.org/2000/svg">
<path d="M31.6907 39.9384C31.8359 40.0835 31.951 40.2559 32.0296 40.4456C32.1081 40.6352 32.1486 40.8385 32.1486 41.0438C32.1486 41.2491 32.1081 41.4524 32.0296 41.6421C31.951 41.8318 31.8359 42.0041 31.6907 42.1493C31.5455 42.2945 31.3732 42.4096 31.1835 42.4882C30.9938 42.5668 30.7905 42.6072 30.5852 42.6072C30.3799 42.6072 30.1766 42.5668 29.9869 42.4882C29.7973 42.4096 29.6249 42.2945 29.4797 42.1493L13.8547 26.5243C13.7095 26.3792 13.5942 26.2069 13.5156 26.0172C13.437 25.8275 13.3965 25.6242 13.3965 25.4188C13.3965 25.2135 13.437 25.0102 13.5156 24.8205C13.5942 24.6308 13.7095 24.4585 13.8547 24.3134L29.4797 8.68837C29.7729 8.39518 30.1706 8.23047 30.5852 8.23047C30.9998 8.23047 31.3975 8.39518 31.6907 8.68837C31.9839 8.98156 32.1486 9.37921 32.1486 9.79384C32.1486 10.2085 31.9839 10.6061 31.6907 10.8993L17.1692 25.4188L31.6907 39.9384Z" fill="white"/>
</svg>
