<svg width="50" height="50" viewBox="0 0 50 50" fill="none" xmlns="http://www.w3.org/2000/svg">
<path d="M34.4364 25.0204L18.8114 40.6454C18.6662 40.7906 18.4939 40.9057 18.3042 40.9843C18.1145 41.0629 17.9113 41.1033 17.7059 41.1033C17.5006 41.1033 17.2973 41.0629 17.1077 40.9843C16.918 40.9057 16.7456 40.7906 16.6005 40.6454C16.4553 40.5002 16.3401 40.3279 16.2616 40.1382C16.183 39.9485 16.1426 39.7452 16.1426 39.5399C16.1426 39.3346 16.183 39.1313 16.2616 38.9417C16.3401 38.752 16.4553 38.5796 16.6005 38.4345L31.122 23.9149L16.6005 9.3954C16.3073 9.10221 16.1426 8.70456 16.1426 8.28993C16.1426 7.8753 16.3073 7.47765 16.6005 7.18446C16.8937 6.89127 17.2913 6.72656 17.7059 6.72656C18.1206 6.72656 18.5182 6.89127 18.8114 7.18446L34.4364 22.8095C34.5817 22.9546 34.6969 23.1269 34.7756 23.3166C34.8542 23.5063 34.8947 23.7096 34.8947 23.9149C34.8947 24.1203 34.8542 24.3236 34.7756 24.5133C34.6969 24.703 34.5817 24.8753 34.4364 25.0204Z" fill="white"/>
</svg>
