<svg width="22" height="22" viewBox="0 0 22 22" fill="none" xmlns="http://www.w3.org/2000/svg">
<path d="M20.851 8.28821L5.03852 2.78821C4.93488 2.75214 4.82411 2.74139 4.71547 2.75688C4.60683 2.77237 4.50347 2.81364 4.41405 2.87724C4.32462 2.94084 4.25171 3.02493 4.20143 3.12246C4.15114 3.22 4.12494 3.32816 4.125 3.4379V18.5629C4.125 18.7452 4.19743 18.9201 4.32636 19.049C4.4553 19.178 4.63016 19.2504 4.8125 19.2504C4.99484 19.2504 5.1697 19.178 5.29864 19.049C5.42757 18.9201 5.5 18.7452 5.5 18.5629V14.9269L20.851 9.58759C20.9861 9.54083 21.1033 9.45313 21.1862 9.33669C21.2691 9.22025 21.3137 9.08085 21.3137 8.9379C21.3137 8.79495 21.2691 8.65556 21.1862 8.53911C21.1033 8.42267 20.9861 8.33497 20.851 8.28821ZM5.5 13.4711V4.4047L18.5324 8.9379L5.5 13.4711Z" fill="white"/>
</svg>
