<svg width="22" height="22" viewBox="0 0 22 22" fill="none" xmlns="http://www.w3.org/2000/svg">
<path d="M11 2.0625C9.23233 2.0625 7.50436 2.58668 6.03459 3.56874C4.56483 4.55081 3.41929 5.94665 2.74283 7.57977C2.06637 9.21288 1.88938 11.0099 2.23424 12.7436C2.57909 14.4773 3.43031 16.0698 4.68024 17.3198C5.93017 18.5697 7.52268 19.4209 9.25638 19.7658C10.9901 20.1106 12.7871 19.9336 14.4202 19.2572C16.0534 18.5807 17.4492 17.4352 18.4313 15.9654C19.4133 14.4956 19.9375 12.7677 19.9375 11C19.935 8.6304 18.9926 6.35856 17.317 4.683C15.6414 3.00743 13.3696 2.065 11 2.0625ZM11 18.5625C9.50428 18.5625 8.04215 18.119 6.7985 17.288C5.55486 16.457 4.58555 15.2759 4.01316 13.894C3.44078 12.5122 3.29101 10.9916 3.58282 9.52463C3.87462 8.05765 4.59487 6.71014 5.65251 5.65251C6.71014 4.59487 8.05765 3.87461 9.52463 3.58281C10.9916 3.29101 12.5122 3.44077 13.894 4.01316C15.2759 4.58555 16.457 5.55485 17.288 6.7985C18.119 8.04215 18.5625 9.50428 18.5625 11C18.5602 13.005 17.7627 14.9272 16.345 16.345C14.9272 17.7627 13.005 18.5602 11 18.5625ZM12.375 15.125C12.375 15.3073 12.3026 15.4822 12.1736 15.6111C12.0447 15.7401 11.8698 15.8125 11.6875 15.8125C11.3228 15.8125 10.9731 15.6676 10.7152 15.4098C10.4574 15.1519 10.3125 14.8022 10.3125 14.4375V11C10.1302 11 9.9553 10.9276 9.82637 10.7986C9.69744 10.6697 9.625 10.4948 9.625 10.3125C9.625 10.1302 9.69744 9.9553 9.82637 9.82636C9.9553 9.69743 10.1302 9.625 10.3125 9.625C10.6772 9.625 11.0269 9.76987 11.2848 10.0277C11.5426 10.2856 11.6875 10.6353 11.6875 11V14.4375C11.8698 14.4375 12.0447 14.5099 12.1736 14.6389C12.3026 14.7678 12.375 14.9427 12.375 15.125ZM9.625 7.21875C9.625 7.01479 9.68549 6.81541 9.7988 6.64582C9.91212 6.47623 10.0732 6.34405 10.2616 6.266C10.45 6.18795 10.6574 6.16752 10.8574 6.20732C11.0575 6.24711 11.2412 6.34532 11.3855 6.48955C11.5297 6.63377 11.6279 6.81752 11.6677 7.01756C11.7075 7.21761 11.6871 7.42496 11.609 7.61339C11.531 7.80183 11.3988 7.96289 11.2292 8.0762C11.0596 8.18952 10.8602 8.25 10.6563 8.25C10.3827 8.25 10.1204 8.14135 9.92705 7.94795C9.73365 7.75456 9.625 7.49225 9.625 7.21875Z" fill="white"/>
</svg>
