<svg width="20" height="20" viewBox="0 0 20 20" fill="none" xmlns="http://www.w3.org/2000/svg">
<path d="M18.0977 15.1986L15.5047 2.87043C15.4712 2.70921 15.4061 2.55621 15.3132 2.42021C15.2204 2.28421 15.1016 2.1679 14.9637 2.07795C14.8257 1.98801 14.6714 1.9262 14.5095 1.89608C14.3476 1.86597 14.1814 1.86813 14.0203 1.90246L10.3633 2.6884C10.0398 2.75923 9.75738 2.95491 9.57742 3.23289C9.39747 3.51086 9.33455 3.84865 9.40234 4.17277L11.9953 16.5009C12.0531 16.7822 12.206 17.035 12.4282 17.2168C12.6504 17.3986 12.9285 17.4984 13.2156 17.4993C13.3044 17.4992 13.3929 17.4898 13.4797 17.4712L17.1367 16.6853C17.4606 16.6143 17.7433 16.4182 17.9233 16.1398C18.1033 15.8613 18.1659 15.523 18.0977 15.1986ZM10.625 3.9173C10.625 3.91262 10.625 3.91027 10.625 3.91027L14.2813 3.12902L14.5414 4.36887L10.8852 5.15559L10.625 3.9173ZM11.1422 6.3759L14.8 5.59074L15.0609 6.83293L11.4062 7.61887L11.1422 6.3759ZM11.6609 8.8423L15.3188 8.05637L16.3578 12.997L12.7 13.7829L11.6609 8.8423ZM16.875 15.4634L13.2187 16.2446L12.9586 15.0048L16.6148 14.2181L16.875 15.4564C16.875 15.4611 16.875 15.4634 16.875 15.4634ZM8.125 2.49934H4.375C4.04348 2.49934 3.72554 2.63103 3.49112 2.86545C3.2567 3.09987 3.125 3.41782 3.125 3.74934V16.2493C3.125 16.5809 3.2567 16.8988 3.49112 17.1332C3.72554 17.3676 4.04348 17.4993 4.375 17.4993H8.125C8.45652 17.4993 8.77446 17.3676 9.00888 17.1332C9.2433 16.8988 9.375 16.5809 9.375 16.2493V3.74934C9.375 3.41782 9.2433 3.09987 9.00888 2.86545C8.77446 2.63103 8.45652 2.49934 8.125 2.49934ZM4.375 3.74934H8.125V4.99934H4.375V3.74934ZM4.375 6.24934H8.125V13.7493H4.375V6.24934ZM8.125 16.2493H4.375V14.9993H8.125V16.2493Z" fill="white"/>
</svg>
