<svg width="22" height="22" viewBox="0 0 22 22" fill="none" xmlns="http://www.w3.org/2000/svg">
<path d="M18.2978 2.20769C18.2155 2.14352 18.1196 2.09895 18.0174 2.07736C17.9153 2.05577 17.8096 2.05773 17.7083 2.08308L6.70829 4.83308C6.55955 4.87026 6.42751 4.95609 6.33315 5.07692C6.23879 5.19775 6.18753 5.34665 6.1875 5.49996V14.96C5.61399 14.5768 4.92886 14.3962 4.24097 14.447C3.55309 14.4978 2.9019 14.777 2.39088 15.2402C1.87985 15.7035 1.53829 16.3243 1.42047 17.0039C1.30265 17.6835 1.41533 18.383 1.74059 18.9913C2.06586 19.5995 2.58506 20.0816 3.21571 20.361C3.84636 20.6403 4.55228 20.701 5.22132 20.5332C5.89036 20.3654 6.48413 19.9788 6.90832 19.4349C7.3325 18.891 7.56276 18.221 7.5625 17.5312V6.03707L17.1875 3.63082V12.21C16.614 11.8268 15.9289 11.6462 15.241 11.697C14.5531 11.7478 13.9019 12.027 13.3909 12.4902C12.8799 12.9535 12.5383 13.5743 12.4205 14.2539C12.3027 14.9335 12.4153 15.633 12.7406 16.2413C13.0659 16.8495 13.5851 17.3316 14.2157 17.611C14.8464 17.8903 15.5523 17.951 16.2213 17.7832C16.8904 17.6154 17.4841 17.2288 17.9083 16.6849C18.3325 16.141 18.5628 15.471 18.5625 14.7812V2.74996C18.5625 2.64539 18.5387 2.5422 18.4928 2.44823C18.447 2.35427 18.3803 2.272 18.2978 2.20769ZM4.46875 19.25C4.12882 19.25 3.79651 19.1492 3.51387 18.9603C3.23122 18.7714 3.01092 18.503 2.88084 18.1889C2.75075 17.8749 2.71671 17.5293 2.78303 17.1959C2.84935 16.8625 3.01304 16.5562 3.25341 16.3159C3.49379 16.0755 3.80004 15.9118 4.13344 15.8455C4.46685 15.7792 4.81243 15.8132 5.12649 15.9433C5.44055 16.0734 5.70898 16.2937 5.89784 16.5763C6.0867 16.859 6.1875 17.1913 6.1875 17.5312C6.1875 17.987 6.00642 18.4242 5.68409 18.7465C5.36177 19.0689 4.9246 19.25 4.46875 19.25ZM15.4688 16.5C15.1288 16.5 14.7965 16.3992 14.5139 16.2103C14.2312 16.0214 14.0109 15.753 13.8808 15.4389C13.7507 15.1249 13.7167 14.7793 13.783 14.4459C13.8493 14.1125 14.013 13.8062 14.2534 13.5659C14.4938 13.3255 14.8 13.1618 15.1334 13.0955C15.4668 13.0292 15.8124 13.0632 16.1265 13.1933C16.4406 13.3234 16.709 13.5437 16.8978 13.8263C17.0867 14.109 17.1875 14.4413 17.1875 14.7812C17.1875 15.0069 17.143 15.2304 17.0567 15.4389C16.9703 15.6475 16.8437 15.8369 16.6841 15.9965C16.5245 16.1561 16.335 16.2828 16.1265 16.3691C15.918 16.4555 15.6945 16.5 15.4688 16.5Z" fill="white"/>
</svg>
