<svg width="20" height="20" viewBox="0 0 20 20" fill="none" xmlns="http://www.w3.org/2000/svg">
<path d="M15.4359 10.0828L11.4039 8.59844L9.91952 4.56328C9.83162 4.32448 9.67258 4.11838 9.46387 3.9728C9.25515 3.82722 9.0068 3.74917 8.75233 3.74917C8.49786 3.74917 8.24952 3.82722 8.0408 3.9728C7.83209 4.11838 7.67305 4.32448 7.58515 4.56328L6.09921 8.59375L2.06405 10.0781C1.82525 10.166 1.61915 10.3251 1.47357 10.5338C1.32799 10.7425 1.24994 10.9908 1.24994 11.2453C1.24994 11.4998 1.32799 11.7481 1.47357 11.9568C1.61915 12.1656 1.82525 12.3246 2.06405 12.4125L6.09374 13.9062L7.57812 17.9391C7.66602 18.1779 7.82506 18.384 8.03377 18.5295C8.24249 18.6751 8.49083 18.7532 8.7453 18.7532C8.99977 18.7532 9.24812 18.6751 9.45683 18.5295C9.66555 18.384 9.82459 18.1779 9.91249 17.9391L11.3969 13.907L15.432 12.4227C15.6708 12.3348 15.8769 12.1757 16.0225 11.967C16.1681 11.7583 16.2461 11.5099 16.2461 11.2555C16.2461 11.001 16.1681 10.7527 16.0225 10.5439C15.8769 10.3352 15.6708 10.1762 15.432 10.0883L15.4359 10.0828ZM10.968 12.7344C10.7991 12.7964 10.6457 12.8944 10.5185 13.0216C10.3912 13.1488 10.2932 13.3022 10.2312 13.4711L8.74687 17.4914L7.26562 13.468C7.20358 13.3 7.10588 13.1474 6.97924 13.0208C6.8526 12.8941 6.70003 12.7964 6.53202 12.7344L2.51171 11.25L6.53202 9.76562C6.70003 9.70359 6.8526 9.60589 6.97924 9.47925C7.10588 9.35261 7.20358 9.20004 7.26562 9.03203L8.74999 5.01172L10.2344 9.03203C10.2964 9.20093 10.3944 9.35431 10.5216 9.48153C10.6488 9.60875 10.8022 9.70676 10.9711 9.76875L14.9914 11.2531L10.968 12.7344ZM11.25 3.125C11.25 2.95924 11.3158 2.80027 11.433 2.68306C11.5503 2.56585 11.7092 2.5 11.875 2.5H13.125V1.25C13.125 1.08424 13.1908 0.925268 13.308 0.808058C13.4253 0.690848 13.5842 0.625 13.75 0.625C13.9158 0.625 14.0747 0.690848 14.1919 0.808058C14.3091 0.925268 14.375 1.08424 14.375 1.25V2.5H15.625C15.7908 2.5 15.9497 2.56585 16.0669 2.68306C16.1841 2.80027 16.25 2.95924 16.25 3.125C16.25 3.29076 16.1841 3.44973 16.0669 3.56694C15.9497 3.68415 15.7908 3.75 15.625 3.75H14.375V5C14.375 5.16576 14.3091 5.32473 14.1919 5.44194C14.0747 5.55915 13.9158 5.625 13.75 5.625C13.5842 5.625 13.4253 5.55915 13.308 5.44194C13.1908 5.32473 13.125 5.16576 13.125 5V3.75H11.875C11.7092 3.75 11.5503 3.68415 11.433 3.56694C11.3158 3.44973 11.25 3.29076 11.25 3.125ZM19.375 6.875C19.375 7.04076 19.3091 7.19973 19.1919 7.31694C19.0747 7.43415 18.9158 7.5 18.75 7.5H18.125V8.125C18.125 8.29076 18.0591 8.44973 17.9419 8.56694C17.8247 8.68415 17.6658 8.75 17.5 8.75C17.3342 8.75 17.1753 8.68415 17.058 8.56694C16.9408 8.44973 16.875 8.29076 16.875 8.125V7.5H16.25C16.0842 7.5 15.9253 7.43415 15.808 7.31694C15.6908 7.19973 15.625 7.04076 15.625 6.875C15.625 6.70924 15.6908 6.55027 15.808 6.43306C15.9253 6.31585 16.0842 6.25 16.25 6.25H16.875V5.625C16.875 5.45924 16.9408 5.30027 17.058 5.18306C17.1753 5.06585 17.3342 5 17.5 5C17.6658 5 17.8247 5.06585 17.9419 5.18306C18.0591 5.30027 18.125 5.45924 18.125 5.625V6.25H18.75C18.9158 6.25 19.0747 6.31585 19.1919 6.43306C19.3091 6.55027 19.375 6.70924 19.375 6.875Z" fill="white"/>
</svg>
